<svg width="50" height="48" viewBox="0 0 50 48" fill="none" xmlns="http://www.w3.org/2000/svg">
<path d="M30.0336 41.7045C30.757 41.2869 31.2828 40.5956 31.4954 39.7826C31.708 38.9697 31.59 38.1017 31.1673 37.3696L29.5737 34.6093C29.151 33.8772 28.4583 33.341 27.6479 33.1186C26.8376 32.8963 25.976 33.006 25.2526 33.4236C19.7978 36.5729 16.6105 31.0523 15.0168 28.292C13.4231 25.5317 10.2358 20.011 15.6906 16.8617C16.4139 16.4441 16.9398 15.7527 17.1524 14.9398C17.365 14.1268 17.247 13.2588 16.8243 12.5267L15.2306 9.7664C14.808 9.03432 14.1153 8.49813 13.3049 8.27577C12.4946 8.05342 11.6329 8.16312 10.9096 8.58075C4.09109 12.5174 1.59367 17.6397 9.56202 31.4413C17.5304 45.2429 23.2151 45.6412 30.0336 41.7045Z" stroke="#BFD2F8" stroke-width="2" stroke-linecap="round" stroke-linejoin="round"/>
<path d="M44.5491 30.306C45.9978 24.7545 45.1906 18.8284 42.3047 13.83C39.4188 8.83147 34.6904 5.16937 29.1582 3.64825M36.1986 28.0147C36.6302 26.3659 36.7338 24.6444 36.5034 22.9484C36.273 21.2525 35.7132 19.6153 34.8559 18.1305C33.9987 16.6457 32.8608 15.3423 31.5072 14.2948C30.1536 13.2473 28.6109 12.4762 26.9673 12.0256M27.893 25.7067C28.1827 24.5958 28.021 23.4101 27.4436 22.41C26.8662 21.4098 25.9201 20.677 24.8133 20.3724" stroke="#BFD2F8" stroke-width="2" stroke-linecap="round" stroke-linejoin="round"/>
</svg>
